# xmcd
#
# Track frame offsets:
#  150
#  12272
#  22476
#  34692
#  44525
#  55946
#  68672
#  81194
#  89537
#  103032
#  113625
#  123017
#  131474
#  144571
#  155534
#  163640
#
# Disc length: 2352 seconds
#
# Revision: 0
# Processed by: cddbd v1.5.1PL0 Copyright (c) Steve Scherf et al.
# Submitted via: Collectorz.com Music Collector 6.9
#
DISCID=d4092e10
DTITLE=Various Artist - Country Legends
DYEAR=2004
DGENRE=Country
TTITLE0=Hank Williams - Never Again
TTITLE1=Don Williams - Take My Hand For A While
TTITLE2=Porter Wagoner - Devil's Alley
TTITLE3=Billie Jo Spears - Souvenirs and California Memories
TTITLE4=Kenny Rogers - A Poem For My Little Lady
TTITLE5=Dolly Parton - Little Blossom
TTITLE6=Patti Page - Whispering Winds
TTITLE7=Willie Nelson - Slow Down Old World
TTITLE8=Bill Monroe - I Hear A Sweet Voice Calling
TTITLE9=Roger Miller - Burning Bridges
TTITLE10=Hank Locklin - Kiss An Angel Good Morning
TTITLE11=Waylon Jennings - Abilene
TTITLE12=Freddy Fender - The Girl Who Waits On Tables
TTITLE13=Patsy Cline - Stop The World
TTITLE14=Johnny Cash - Guess Things Happen That Way
TTITLE15=Eddy Arnold - Take Me In Your Arms And Hold Me
EXTD=
EXTT0=
EXTT1=
EXTT2=
EXTT3=
EXTT4=
EXTT5=
EXTT6=
EXTT7=
EXTT8=
EXTT9=
EXTT10=
EXTT11=
EXTT12=
EXTT13=
EXTT14=
EXTT15=
PLAYORDER=
